<svg width="52" height="52" viewBox="0 0 52 52" fill="none" xmlns="http://www.w3.org/2000/svg">
<path d="M39.499 47.276C37.2143 47.276 35.428 46.6397 34.14 45.367C32.852 44.0943 32.208 42.2773 32.208 39.916V30.9H35.934V39.778C35.934 41.3113 36.2483 42.4153 36.877 43.09C37.5057 43.7647 38.3873 44.102 39.522 44.102C40.6567 44.102 41.5383 43.7647 42.167 43.09C42.7957 42.4153 43.11 41.3113 43.11 39.778V30.9H46.79V39.916C46.79 42.2773 46.146 44.0943 44.858 45.367C43.57 46.6397 41.7837 47.276 39.499 47.276Z" fill="black"/>
<rect x="27.5" y="27.5" width="24" height="24" stroke="#111111"/>
<rect width="25" height="25" transform="translate(0 27)" fill="#111111"/>
<path d="M5.1214 47V30.9H8.2034L17.7024 42.492H16.2074V30.9H19.8874V47H16.8284L7.3064 35.408H8.8014V47H5.1214Z" fill="black"/>
<rect width="25" height="25" transform="translate(27)" fill="#111111"/>
<path d="M33.1155 20V3.9H40.9815C43.0055 3.9 44.5235 4.28333 45.5355 5.05C46.5629 5.81667 47.0765 6.82867 47.0765 8.086C47.0765 8.92933 46.8695 9.66533 46.4555 10.294C46.0415 10.9073 45.4742 11.3827 44.7535 11.72C44.0329 12.0573 43.2049 12.226 42.2695 12.226L42.7065 11.283C43.7185 11.283 44.6155 11.4517 45.3975 11.789C46.1795 12.111 46.7852 12.594 47.2145 13.238C47.6592 13.882 47.8815 14.6717 47.8815 15.607C47.8815 16.987 47.3372 18.068 46.2485 18.85C45.1599 19.6167 43.5575 20 41.4415 20H33.1155ZM36.8185 17.194H41.1655C42.1315 17.194 42.8599 17.0407 43.3505 16.734C43.8565 16.412 44.1095 15.906 44.1095 15.216C44.1095 14.5413 43.8565 14.043 43.3505 13.721C42.8599 13.3837 42.1315 13.215 41.1655 13.215H36.5425V10.501H40.5215C41.4262 10.501 42.1162 10.3477 42.5915 10.041C43.0822 9.719 43.3275 9.236 43.3275 8.592C43.3275 7.96333 43.0822 7.49567 42.5915 7.189C42.1162 6.867 41.4262 6.706 40.5215 6.706H36.8185V17.194Z" fill="black"/>
<path d="M11.1356 20V3.9H14.8616V20H11.1356Z" fill="black"/>
<rect x="0.5" y="0.5" width="24" height="24" stroke="#111111"/>
</svg>
